<mxfile host="app.diagrams.net" modified="2020-10-16T08:36:21.516Z" agent="5.0 (Windows NT 10.0; Win64; x64) AppleWebKit/537.36 (KHTML, like Gecko) Chrome/81.0.4044.113 Safari/537.36" etag="sh16OklNsr7solPtU1Mx" version="13.7.5" type="github">
  <diagram id="xOyuHVctyxyNiX9vJYy3" name="Page-1">
    <mxGraphModel dx="1422" dy="839" grid="0" gridSize="10" guides="1" tooltips="1" connect="1" arrows="1" fold="1" page="1" pageScale="1" pageWidth="1654" pageHeight="2336" math="0" shadow="0">
      <root>
        <mxCell id="0" />
        <mxCell id="1" parent="0" />
        <mxCell id="1OczaDeymzfdzoxHV3Rl-15" value="内部推荐" style="swimlane;html=1;childLayout=stackLayout;resizeParent=1;resizeParentMax=0;horizontal=1;startSize=20;horizontalStack=0;" vertex="1" parent="1">
          <mxGeometry x="310" y="470" width="990" height="260" as="geometry" />
        </mxCell>
        <mxCell id="1OczaDeymzfdzoxHV3Rl-16" value="管理员" style="swimlane;html=1;startSize=20;horizontal=0;" vertex="1" parent="1OczaDeymzfdzoxHV3Rl-15">
          <mxGeometry y="20" width="990" height="120" as="geometry" />
        </mxCell>
        <mxCell id="1OczaDeymzfdzoxHV3Rl-5" value="发布广告&lt;br&gt;（选择内推渠道）" style="rounded=0;whiteSpace=wrap;html=1;" vertex="1" parent="1OczaDeymzfdzoxHV3Rl-16">
          <mxGeometry x="200" y="30" width="100" height="40" as="geometry" />
        </mxCell>
        <mxCell id="1OczaDeymzfdzoxHV3Rl-1" value="创建职位" style="rounded=0;whiteSpace=wrap;html=1;" vertex="1" parent="1OczaDeymzfdzoxHV3Rl-16">
          <mxGeometry x="40" y="30" width="90" height="40" as="geometry" />
        </mxCell>
        <mxCell id="1OczaDeymzfdzoxHV3Rl-6" value="" style="edgeStyle=orthogonalEdgeStyle;rounded=0;orthogonalLoop=1;jettySize=auto;html=1;" edge="1" parent="1OczaDeymzfdzoxHV3Rl-16" source="1OczaDeymzfdzoxHV3Rl-1" target="1OczaDeymzfdzoxHV3Rl-5">
          <mxGeometry relative="1" as="geometry" />
        </mxCell>
        <mxCell id="1OczaDeymzfdzoxHV3Rl-17" value="企业员工" style="swimlane;html=1;startSize=20;horizontal=0;" vertex="1" parent="1OczaDeymzfdzoxHV3Rl-15">
          <mxGeometry y="140" width="990" height="120" as="geometry" />
        </mxCell>
        <mxCell id="1OczaDeymzfdzoxHV3Rl-23" style="edgeStyle=orthogonalEdgeStyle;rounded=0;orthogonalLoop=1;jettySize=auto;html=1;exitX=1;exitY=0.5;exitDx=0;exitDy=0;entryX=0;entryY=0.5;entryDx=0;entryDy=0;" edge="1" parent="1OczaDeymzfdzoxHV3Rl-17" source="1OczaDeymzfdzoxHV3Rl-11" target="1OczaDeymzfdzoxHV3Rl-20">
          <mxGeometry relative="1" as="geometry" />
        </mxCell>
        <mxCell id="1OczaDeymzfdzoxHV3Rl-22" style="edgeStyle=orthogonalEdgeStyle;rounded=0;orthogonalLoop=1;jettySize=auto;html=1;exitX=1;exitY=0.5;exitDx=0;exitDy=0;entryX=0;entryY=0.5;entryDx=0;entryDy=0;" edge="1" parent="1OczaDeymzfdzoxHV3Rl-17" source="1OczaDeymzfdzoxHV3Rl-9" target="1OczaDeymzfdzoxHV3Rl-11">
          <mxGeometry relative="1" as="geometry" />
        </mxCell>
        <mxCell id="1OczaDeymzfdzoxHV3Rl-29" style="edgeStyle=orthogonalEdgeStyle;rounded=0;orthogonalLoop=1;jettySize=auto;html=1;exitX=1;exitY=0.5;exitDx=0;exitDy=0;entryX=0.5;entryY=0;entryDx=0;entryDy=0;" edge="1" parent="1OczaDeymzfdzoxHV3Rl-17" source="1OczaDeymzfdzoxHV3Rl-27" target="1OczaDeymzfdzoxHV3Rl-20">
          <mxGeometry relative="1" as="geometry" />
        </mxCell>
        <mxCell id="1OczaDeymzfdzoxHV3Rl-27" value="第一次访问&lt;br&gt;需要注册" style="rounded=0;whiteSpace=wrap;html=1;" vertex="1" parent="1OczaDeymzfdzoxHV3Rl-17">
          <mxGeometry x="290" y="10" width="90" height="40" as="geometry" />
        </mxCell>
        <mxCell id="1OczaDeymzfdzoxHV3Rl-35" style="edgeStyle=orthogonalEdgeStyle;rounded=0;orthogonalLoop=1;jettySize=auto;html=1;exitX=1;exitY=0.5;exitDx=0;exitDy=0;entryX=0;entryY=0.5;entryDx=0;entryDy=0;" edge="1" parent="1OczaDeymzfdzoxHV3Rl-17" source="1OczaDeymzfdzoxHV3Rl-31" target="1OczaDeymzfdzoxHV3Rl-34">
          <mxGeometry relative="1" as="geometry" />
        </mxCell>
        <mxCell id="1OczaDeymzfdzoxHV3Rl-34" value="点投递&lt;br&gt;（内部查重）" style="rounded=0;whiteSpace=wrap;html=1;" vertex="1" parent="1OczaDeymzfdzoxHV3Rl-17">
          <mxGeometry x="800" y="70" width="100" height="40" as="geometry" />
        </mxCell>
        <mxCell id="1OczaDeymzfdzoxHV3Rl-31" value="点投递简历&lt;br&gt;填写候选人信息" style="rounded=0;whiteSpace=wrap;html=1;" vertex="1" parent="1OczaDeymzfdzoxHV3Rl-17">
          <mxGeometry x="650" y="70" width="100" height="40" as="geometry" />
        </mxCell>
        <mxCell id="1OczaDeymzfdzoxHV3Rl-9" value="访问内推PC端" style="rounded=0;whiteSpace=wrap;html=1;" vertex="1" parent="1OczaDeymzfdzoxHV3Rl-17">
          <mxGeometry x="40" y="70" width="90" height="40" as="geometry" />
        </mxCell>
        <mxCell id="1OczaDeymzfdzoxHV3Rl-32" style="edgeStyle=orthogonalEdgeStyle;rounded=0;orthogonalLoop=1;jettySize=auto;html=1;exitX=1;exitY=0.5;exitDx=0;exitDy=0;entryX=0;entryY=0.5;entryDx=0;entryDy=0;" edge="1" parent="1OczaDeymzfdzoxHV3Rl-17" source="1OczaDeymzfdzoxHV3Rl-20" target="1OczaDeymzfdzoxHV3Rl-30">
          <mxGeometry relative="1" as="geometry" />
        </mxCell>
        <mxCell id="1OczaDeymzfdzoxHV3Rl-20" value="选择某一职位广告" style="rounded=0;whiteSpace=wrap;html=1;" vertex="1" parent="1OczaDeymzfdzoxHV3Rl-17">
          <mxGeometry x="360" y="70" width="100" height="40" as="geometry" />
        </mxCell>
        <mxCell id="1OczaDeymzfdzoxHV3Rl-28" style="edgeStyle=orthogonalEdgeStyle;rounded=0;orthogonalLoop=1;jettySize=auto;html=1;exitX=0.5;exitY=0;exitDx=0;exitDy=0;entryX=0;entryY=0.5;entryDx=0;entryDy=0;" edge="1" parent="1OczaDeymzfdzoxHV3Rl-17" source="1OczaDeymzfdzoxHV3Rl-11" target="1OczaDeymzfdzoxHV3Rl-27">
          <mxGeometry relative="1" as="geometry" />
        </mxCell>
        <mxCell id="1OczaDeymzfdzoxHV3Rl-11" value="手机扫码登陆" style="rounded=0;whiteSpace=wrap;html=1;" vertex="1" parent="1OczaDeymzfdzoxHV3Rl-17">
          <mxGeometry x="200" y="70" width="90" height="40" as="geometry" />
        </mxCell>
        <mxCell id="1OczaDeymzfdzoxHV3Rl-33" style="edgeStyle=orthogonalEdgeStyle;rounded=0;orthogonalLoop=1;jettySize=auto;html=1;exitX=1;exitY=0.5;exitDx=0;exitDy=0;entryX=0;entryY=0.5;entryDx=0;entryDy=0;" edge="1" parent="1OczaDeymzfdzoxHV3Rl-17" source="1OczaDeymzfdzoxHV3Rl-30" target="1OczaDeymzfdzoxHV3Rl-31">
          <mxGeometry relative="1" as="geometry" />
        </mxCell>
        <mxCell id="1OczaDeymzfdzoxHV3Rl-30" value="选择某一职位广告" style="rounded=0;whiteSpace=wrap;html=1;" vertex="1" parent="1OczaDeymzfdzoxHV3Rl-17">
          <mxGeometry x="510" y="70" width="100" height="40" as="geometry" />
        </mxCell>
        <mxCell id="1OczaDeymzfdzoxHV3Rl-51" value="企业员工进内推系统" style="swimlane;html=1;childLayout=stackLayout;resizeParent=1;resizeParentMax=0;horizontal=1;startSize=20;horizontalStack=0;" vertex="1" parent="1">
          <mxGeometry x="82" y="56" width="980" height="260" as="geometry" />
        </mxCell>
        <mxCell id="1OczaDeymzfdzoxHV3Rl-52" value="内推系统" style="swimlane;html=1;startSize=20;horizontal=0;" vertex="1" parent="1OczaDeymzfdzoxHV3Rl-51">
          <mxGeometry y="20" width="980" height="120" as="geometry" />
        </mxCell>
        <mxCell id="1OczaDeymzfdzoxHV3Rl-60" style="edgeStyle=orthogonalEdgeStyle;rounded=0;orthogonalLoop=1;jettySize=auto;html=1;exitX=1;exitY=0.5;exitDx=0;exitDy=0;entryX=0;entryY=0.5;entryDx=0;entryDy=0;" edge="1" parent="1OczaDeymzfdzoxHV3Rl-52" source="1OczaDeymzfdzoxHV3Rl-48" target="1OczaDeymzfdzoxHV3Rl-50">
          <mxGeometry relative="1" as="geometry" />
        </mxCell>
        <mxCell id="1OczaDeymzfdzoxHV3Rl-50" value="发送邮件" style="rounded=0;whiteSpace=wrap;html=1;" vertex="1" parent="1OczaDeymzfdzoxHV3Rl-52">
          <mxGeometry x="647" y="40" width="80" height="40" as="geometry" />
        </mxCell>
        <mxCell id="1OczaDeymzfdzoxHV3Rl-64" value="返回内推页面" style="rounded=0;whiteSpace=wrap;html=1;" vertex="1" parent="1OczaDeymzfdzoxHV3Rl-52">
          <mxGeometry x="884" y="40" width="80" height="40" as="geometry" />
        </mxCell>
        <mxCell id="1OczaDeymzfdzoxHV3Rl-48" value="是否是&lt;br&gt;后台限定的&lt;br&gt;邮箱" style="rhombus;whiteSpace=wrap;html=1;" vertex="1" parent="1OczaDeymzfdzoxHV3Rl-52">
          <mxGeometry x="475" y="29" width="112" height="62" as="geometry" />
        </mxCell>
        <mxCell id="1OczaDeymzfdzoxHV3Rl-56" value="生成登录&lt;br&gt;二维码" style="rounded=0;whiteSpace=wrap;html=1;" vertex="1" parent="1OczaDeymzfdzoxHV3Rl-52">
          <mxGeometry x="115" y="40" width="80" height="40" as="geometry" />
        </mxCell>
        <mxCell id="1OczaDeymzfdzoxHV3Rl-66" value="已绑定" style="edgeStyle=orthogonalEdgeStyle;rounded=0;orthogonalLoop=1;jettySize=auto;html=1;exitX=0.5;exitY=0;exitDx=0;exitDy=0;entryX=0.5;entryY=0;entryDx=0;entryDy=0;" edge="1" parent="1OczaDeymzfdzoxHV3Rl-52" source="1OczaDeymzfdzoxHV3Rl-41" target="1OczaDeymzfdzoxHV3Rl-64">
          <mxGeometry relative="1" as="geometry" />
        </mxCell>
        <mxCell id="1OczaDeymzfdzoxHV3Rl-41" value="是否绑定？" style="rhombus;whiteSpace=wrap;html=1;" vertex="1" parent="1OczaDeymzfdzoxHV3Rl-52">
          <mxGeometry x="335" y="37" width="96" height="46" as="geometry" />
        </mxCell>
        <mxCell id="1OczaDeymzfdzoxHV3Rl-53" value="企业员工" style="swimlane;html=1;startSize=20;horizontal=0;" vertex="1" parent="1OczaDeymzfdzoxHV3Rl-51">
          <mxGeometry y="140" width="980" height="120" as="geometry" />
        </mxCell>
        <mxCell id="1OczaDeymzfdzoxHV3Rl-46" value="点邮件里的激活链接" style="rounded=0;whiteSpace=wrap;html=1;" vertex="1" parent="1OczaDeymzfdzoxHV3Rl-53">
          <mxGeometry x="729" y="40" width="80" height="40" as="geometry" />
        </mxCell>
        <mxCell id="1OczaDeymzfdzoxHV3Rl-39" value="微信扫码" style="rounded=0;whiteSpace=wrap;html=1;" vertex="1" parent="1OczaDeymzfdzoxHV3Rl-53">
          <mxGeometry x="175" y="40" width="80" height="40" as="geometry" />
        </mxCell>
        <mxCell id="1OczaDeymzfdzoxHV3Rl-55" value="访问内推站点" style="rounded=0;whiteSpace=wrap;html=1;" vertex="1" parent="1OczaDeymzfdzoxHV3Rl-53">
          <mxGeometry x="38" y="40" width="80" height="40" as="geometry" />
        </mxCell>
        <mxCell id="1OczaDeymzfdzoxHV3Rl-44" value="用户填写&lt;br&gt;邮箱/手机号" style="rounded=0;whiteSpace=wrap;html=1;" vertex="1" parent="1OczaDeymzfdzoxHV3Rl-53">
          <mxGeometry x="343" y="40" width="80" height="40" as="geometry" />
        </mxCell>
        <mxCell id="1OczaDeymzfdzoxHV3Rl-57" style="edgeStyle=orthogonalEdgeStyle;rounded=0;orthogonalLoop=1;jettySize=auto;html=1;exitX=0.5;exitY=0;exitDx=0;exitDy=0;entryX=0;entryY=0.5;entryDx=0;entryDy=0;" edge="1" parent="1OczaDeymzfdzoxHV3Rl-51" source="1OczaDeymzfdzoxHV3Rl-55" target="1OczaDeymzfdzoxHV3Rl-56">
          <mxGeometry relative="1" as="geometry" />
        </mxCell>
        <mxCell id="1OczaDeymzfdzoxHV3Rl-58" style="edgeStyle=orthogonalEdgeStyle;rounded=0;orthogonalLoop=1;jettySize=auto;html=1;exitX=1;exitY=0.5;exitDx=0;exitDy=0;entryX=0.5;entryY=0;entryDx=0;entryDy=0;" edge="1" parent="1OczaDeymzfdzoxHV3Rl-51" source="1OczaDeymzfdzoxHV3Rl-56" target="1OczaDeymzfdzoxHV3Rl-39">
          <mxGeometry relative="1" as="geometry" />
        </mxCell>
        <mxCell id="1OczaDeymzfdzoxHV3Rl-40" value="传递微信ID" style="edgeStyle=orthogonalEdgeStyle;rounded=0;orthogonalLoop=1;jettySize=auto;html=1;exitX=1;exitY=0.5;exitDx=0;exitDy=0;entryX=0;entryY=0.5;entryDx=0;entryDy=0;" edge="1" parent="1OczaDeymzfdzoxHV3Rl-51" source="1OczaDeymzfdzoxHV3Rl-39" target="1OczaDeymzfdzoxHV3Rl-41">
          <mxGeometry x="0.2626" relative="1" as="geometry">
            <mxPoint x="288" y="111" as="targetPoint" />
            <mxPoint as="offset" />
          </mxGeometry>
        </mxCell>
        <mxCell id="1OczaDeymzfdzoxHV3Rl-59" value="未绑定" style="edgeStyle=orthogonalEdgeStyle;rounded=0;orthogonalLoop=1;jettySize=auto;html=1;exitX=0.5;exitY=1;exitDx=0;exitDy=0;entryX=0.5;entryY=0;entryDx=0;entryDy=0;" edge="1" parent="1OczaDeymzfdzoxHV3Rl-51" source="1OczaDeymzfdzoxHV3Rl-41" target="1OczaDeymzfdzoxHV3Rl-44">
          <mxGeometry x="-0.7442" relative="1" as="geometry">
            <mxPoint as="offset" />
          </mxGeometry>
        </mxCell>
        <mxCell id="1OczaDeymzfdzoxHV3Rl-49" style="edgeStyle=orthogonalEdgeStyle;rounded=0;orthogonalLoop=1;jettySize=auto;html=1;exitX=1;exitY=0.5;exitDx=0;exitDy=0;entryX=0;entryY=0.5;entryDx=0;entryDy=0;" edge="1" parent="1OczaDeymzfdzoxHV3Rl-51" source="1OczaDeymzfdzoxHV3Rl-44" target="1OczaDeymzfdzoxHV3Rl-48">
          <mxGeometry relative="1" as="geometry" />
        </mxCell>
        <mxCell id="1OczaDeymzfdzoxHV3Rl-62" style="edgeStyle=orthogonalEdgeStyle;rounded=0;orthogonalLoop=1;jettySize=auto;html=1;exitX=0.5;exitY=1;exitDx=0;exitDy=0;entryX=0;entryY=0.5;entryDx=0;entryDy=0;" edge="1" parent="1OczaDeymzfdzoxHV3Rl-51" source="1OczaDeymzfdzoxHV3Rl-50" target="1OczaDeymzfdzoxHV3Rl-46">
          <mxGeometry relative="1" as="geometry" />
        </mxCell>
        <mxCell id="1OczaDeymzfdzoxHV3Rl-67" style="edgeStyle=orthogonalEdgeStyle;rounded=0;orthogonalLoop=1;jettySize=auto;html=1;exitX=1;exitY=0.5;exitDx=0;exitDy=0;entryX=0;entryY=0.5;entryDx=0;entryDy=0;" edge="1" parent="1OczaDeymzfdzoxHV3Rl-51" source="1OczaDeymzfdzoxHV3Rl-46" target="1OczaDeymzfdzoxHV3Rl-64">
          <mxGeometry relative="1" as="geometry" />
        </mxCell>
      </root>
    </mxGraphModel>
  </diagram>
</mxfile>
